<svg xmlns="http://www.w3.org/2000/svg" width="1200" height="800" viewBox="0 0 1200 800" fill="none">
  <defs>
    <linearGradient id="g" x1="0" y1="0" x2="1200" y2="800" gradientUnits="userSpaceOnUse">
      <stop stop-color="#E0F2FE" />
      <stop offset="1" stop-color="#ECFDF3" />
    </linearGradient>
    <linearGradient id="wave" x1="0" y1="420" x2="1200" y2="760" gradientUnits="userSpaceOnUse">
      <stop stop-color="#93C5FD" />
      <stop offset="1" stop-color="#34D399" />
    </linearGradient>
  </defs>
  <rect width="1200" height="800" rx="48" fill="url(#g)" />
  <rect x="120" y="170" width="220" height="180" rx="24" fill="#FDE68A" opacity="0.6" />
  <rect x="860" y="140" width="190" height="160" rx="24" fill="#BBF7D0" opacity="0.6" />
  <path d="M0 520C120 470 240 470 360 520C480 570 600 570 720 520C840 470 960 470 1080 520C1140 545 1170 560 1200 570V800H0V520Z" fill="url(#wave)" />
  <path d="M140 520C220 490 300 490 380 520C460 550 540 550 620 520" stroke="#1D4ED8" stroke-width="16" stroke-linecap="round" opacity="0.35" />
  <circle cx="520" cy="340" r="40" fill="#F59E0B" />
  <circle cx="600" cy="360" r="32" fill="#F97316" />
  <circle cx="560" cy="400" r="28" fill="#FB7185" />
  <path d="M675 325C690 300 720 290 748 300C730 322 705 338 675 325Z" fill="#10B981" />
</svg>
