<svg width="512" height="512" viewBox="0 0 512 512" fill="none" xmlns="http://www.w3.org/2000/svg">
  <rect width="512" height="512" rx="92" fill="#F2EFE5" />
  <circle cx="256" cy="176" r="90" fill="#D9C66B" />
  <circle cx="296" cy="160" r="42" fill="#F2EFE5" />

  <path
    d="M182 214C148 208 122 234 122 268C147 274 176 263 198 236"
    fill="#9FAE4D"
    stroke="#5B6A33"
    stroke-width="10"
    stroke-linecap="round"
    stroke-linejoin="round"
  />
  <path
    d="M330 214C364 208 390 234 390 268C365 274 336 263 314 236"
    fill="#9FAE4D"
    stroke="#5B6A33"
    stroke-width="10"
    stroke-linecap="round"
    stroke-linejoin="round"
  />

  <ellipse cx="256" cy="235" rx="62" ry="82" fill="#B68D5C" stroke="#6C4A2A" stroke-width="11" />
  <path
    d="M244 164C224 184 222 213 232 238C240 259 255 275 274 292"
    stroke="#6C4A2A"
    stroke-width="9"
    stroke-linecap="round"
    stroke-linejoin="round"
  />
  <path
    d="M214 311C239 314 273 314 298 311"
    stroke="#6C4A2A"
    stroke-width="9"
    stroke-linecap="round"
    stroke-linejoin="round"
  />
</svg>
